<?xml version="1.0" encoding="UTF-8" standalone="no"?>
<!-- Created with Inkscape (http://www.inkscape.org/) -->

<svg
   width="19.004827mm"
   height="20.855099mm"
   viewBox="0 0 19.004827 20.855099"
   version="1.1"
   id="svg21"
   inkscape:version="1.2.1 (9c6d41e4, 2022-07-14)"
   sodipodi:docname="icons.svg"
   xml:space="preserve"
   inkscape:export-filename="Documents/GitHub/benji42site/images/pyromancer.png"
   inkscape:export-xdpi="96"
   inkscape:export-ydpi="96"
   xmlns:inkscape="http://www.inkscape.org/namespaces/inkscape"
   xmlns:sodipodi="http://sodipodi.sourceforge.net/DTD/sodipodi-0.dtd"
   xmlns="http://www.w3.org/2000/svg"
   xmlns:svg="http://www.w3.org/2000/svg"><sodipodi:namedview
     id="namedview23"
     pagecolor="#505050"
     bordercolor="#eeeeee"
     borderopacity="1"
     inkscape:showpageshadow="0"
     inkscape:pageopacity="0"
     inkscape:pagecheckerboard="0"
     inkscape:deskcolor="#505050"
     inkscape:document-units="mm"
     showgrid="false"
     inkscape:zoom="1.217621"
     inkscape:cx="287.03514"
     inkscape:cy="194.64185"
     inkscape:window-width="1440"
     inkscape:window-height="872"
     inkscape:window-x="0"
     inkscape:window-y="0"
     inkscape:window-maximized="0"
     inkscape:current-layer="layer1" /><defs
     id="defs18" /><g
     inkscape:label="Layer 1"
     inkscape:groupmode="layer"
     id="layer1"
     transform="translate(-16.102862,-44.220111)"><g
       id="g911"
       transform="matrix(1.1363127,0,0,1.1348845,-3.3294093,-7.4379742)"
       style="stroke-width:0.880593"
       inkscape:export-filename="Documents/GitHub/benji42site/images/alchemist.svg"
       inkscape:export-xdpi="96"
       inkscape:export-ydpi="96"><path
         id="path3143"
         style="fill:none;stroke:#ffffd1;stroke-width:1.58507;stroke-linecap:round;stroke-linejoin:round;stroke-dasharray:none;stroke-opacity:1"
         d="m 21.091873,53.448981 c -0.0757,1.425818 -0.104304,2.847447 -0.104304,4.276715 0,0.876416 -0.06774,1.657553 0.312934,2.503446 0.142682,0.317076 0.388055,0.580819 0.625858,0.83448 0.136025,0.145093 1.486323,1.347611 1.773267,1.460344 1.381095,0.542572 3.213752,0.739026 4.693968,0.41724 0.334623,-0.07274 0.627868,-0.273737 0.938792,-0.41724 2.477235,-1.143344 4.241072,-3.897727 3.546546,-6.675852 C 32.632798,54.863593 31.063149,52.707203 30.792721,52.301568 30.393785,51.70315 29.301559,50.006743 28.4979,50.006743 m -1.895497,4.959363 c 0.155908,0.834066 -0.266728,2.348042 0.102906,3.087311 M 22.639747,46.766121 c 0.191662,0.104939 0.397808,0.188045 0.575018,0.314818 0.519069,0.371326 0.783582,0.588234 1.120764,0.963813 0.389162,0.433478 0.779658,0.806689 0.944889,1.345592 0.02452,0.08009 0.0075,0.160933 0.0086,0.2411 0.0075,0.607941 -0.0043,0.616423 -0.202963,1.053231 -0.289729,0.636684 -0.447325,1.028199 -1.024289,1.5296 -0.174704,0.151845 -0.412076,0.238204 -0.641815,0.319109 -1.13384,0.399304 -2.780319,0.331693 -3.912912,-0.446317 -1.170777,-0.964029 -1.613177,-2.071169 -1.613338,-2.715464 0.137025,-0.999536 0.697429,-1.707089 0.958405,-2.060541 0.601652,-0.814885 1.1901,-1.084612 2.357231,-0.978129 0.256868,0.05504 0.920694,0.141488 1.694889,0.572965 z" /></g></g></svg>
