<?xml version="1.0" encoding="UTF-8" standalone="no"?>
<!-- Created with Inkscape (http://www.inkscape.org/) -->

<svg
   width="13.598434mm"
   height="20.979549mm"
   viewBox="0 0 13.598434 20.979549"
   version="1.1"
   id="svg21"
   inkscape:version="1.2.1 (9c6d41e4, 2022-07-14)"
   sodipodi:docname="icons.svg"
   xml:space="preserve"
   inkscape:export-filename="Documents/GitHub/benji42site/images/sorcercer.svg"
   inkscape:export-xdpi="96"
   inkscape:export-ydpi="96"
   xmlns:inkscape="http://www.inkscape.org/namespaces/inkscape"
   xmlns:sodipodi="http://sodipodi.sourceforge.net/DTD/sodipodi-0.dtd"
   xmlns="http://www.w3.org/2000/svg"
   xmlns:svg="http://www.w3.org/2000/svg"><sodipodi:namedview
     id="namedview23"
     pagecolor="#505050"
     bordercolor="#eeeeee"
     borderopacity="1"
     inkscape:showpageshadow="0"
     inkscape:pageopacity="0"
     inkscape:pagecheckerboard="0"
     inkscape:deskcolor="#505050"
     inkscape:document-units="mm"
     showgrid="false"
     inkscape:zoom="2.9572287"
     inkscape:cx="57.993485"
     inkscape:cy="268.83277"
     inkscape:window-width="1440"
     inkscape:window-height="872"
     inkscape:window-x="0"
     inkscape:window-y="0"
     inkscape:window-maximized="0"
     inkscape:current-layer="layer1" /><defs
     id="defs18" /><g
     inkscape:label="Layer 1"
     inkscape:groupmode="layer"
     id="layer1"
     transform="translate(-41.238622,-44.854815)"><path
       id="path4690"
       style="fill:none;stroke:#ffffd1;stroke-width:1.80001;stroke-linecap:round;stroke-linejoin:round;stroke-dasharray:none;stroke-opacity:1"
       d="m 47.683434,64.150141 c -0.664275,-0.263911 -3.21995,0.132743 -3.882937,-0.307901 -0.392299,-0.260738 -0.334016,-3.776783 -0.348711,-4.303893 -0.03119,-1.116717 -0.556622,-2.57485 0.08967,-3.53904 0.0327,-0.04883 -0.02458,-0.138739 0.02198,-0.174758 0.08555,-0.06619 0.623297,-0.200728 0.746047,-0.26176 0.476193,-0.236778 1.592729,-0.08947 2.127985,0.08851 1.519286,0.505192 1.284032,1.126761 1.117543,2.447367 -0.01137,0.09 -0.02761,1.125348 -0.154219,1.223307 -0.253523,0.196144 -0.885105,-0.103804 -1.074995,0.04312 -0.263377,0.203757 0.270449,0.211323 -0.197525,0.152819 m 7.32894,5.416444 c 0.691766,-2.869223 0.588168,-5.757846 0,-9.589768 -0.178034,-1.159882 -0.237102,-2.792266 -1.329608,-3.608287 -1.552605,-1.159683 -2.998662,-1.392915 -4.752021,-2.111925 -1.755597,-0.719929 -3.49323,-1.550126 -4.730157,-3.028347 -0.218241,-0.260819 -0.256351,-0.591785 -0.506802,-0.841207"
       inkscape:export-filename="Documents/GitHub/benji42site/images/conjurer.svg"
       inkscape:export-xdpi="96"
       inkscape:export-ydpi="96" /></g></svg>
