<?xml version="1.0" encoding="UTF-8" standalone="no"?>
<!-- Created with Inkscape (http://www.inkscape.org/) -->

<svg
   width="19.02364mm"
   height="20.017227mm"
   viewBox="0 0 19.02364 20.017227"
   version="1.1"
   id="svg21"
   inkscape:version="1.2.1 (9c6d41e4, 2022-07-14)"
   sodipodi:docname="icons.svg"
   xml:space="preserve"
   inkscape:export-filename="Documents/GitHub/benji42site/images/sorcercer.svg"
   inkscape:export-xdpi="96"
   inkscape:export-ydpi="96"
   xmlns:inkscape="http://www.inkscape.org/namespaces/inkscape"
   xmlns:sodipodi="http://sodipodi.sourceforge.net/DTD/sodipodi-0.dtd"
   xmlns="http://www.w3.org/2000/svg"
   xmlns:svg="http://www.w3.org/2000/svg"><sodipodi:namedview
     id="namedview23"
     pagecolor="#505050"
     bordercolor="#eeeeee"
     borderopacity="1"
     inkscape:showpageshadow="0"
     inkscape:pageopacity="0"
     inkscape:pagecheckerboard="0"
     inkscape:deskcolor="#505050"
     inkscape:document-units="mm"
     showgrid="false"
     inkscape:zoom="2.9572287"
     inkscape:cx="57.993485"
     inkscape:cy="268.83277"
     inkscape:window-width="1440"
     inkscape:window-height="872"
     inkscape:window-x="0"
     inkscape:window-y="0"
     inkscape:window-maximized="0"
     inkscape:current-layer="layer1" /><defs
     id="defs18" /><g
     inkscape:label="Layer 1"
     inkscape:groupmode="layer"
     id="layer1"
     transform="translate(-60.328565,-44.69834)"><path
       id="path4774"
       style="fill:none;stroke:#ffffd1;stroke-width:1.8;stroke-linecap:round;stroke-linejoin:round;stroke-dasharray:none;stroke-opacity:1"
       d="m 69.856818,50.623785 c 2.311732,0.206095 4.592142,-0.579432 6.993012,-0.628181 0.1902,0.205027 0,2.180848 0,2.512723 -0.571308,3.763394 2.4082,9.67307 1.359751,11.307251 -3.991489,-0.867646 -7.697428,-0.291564 -11.460767,-0.209392 M 61.309806,46.435913 v 1.25636 8.166349 c 0,0.279191 -0.183142,0.640157 0,0.837576 3.583011,-0.09838 4.598338,-0.09708 6.410261,-0.418787 0.190694,-0.04112 2.254394,-0.545602 2.331001,-0.628181 0.298693,-0.321978 -0.724323,-2.686639 -0.777001,-3.140903 -0.165878,-1.43049 -0.269805,-2.629116 -0.582751,-3.978476 -0.14132,-0.60935 0.08592,-0.861748 -0.19425,-1.465758 -0.126444,-0.272598 0.06722,-0.692643 -0.19425,-1.256361 -0.02895,-0.06243 0.04579,-0.160038 0,-0.209393 -2.280934,0.126315 -5.010796,0.254252 -6.99301,0.837574 z"
       inkscape:export-filename="Documents/GitHub/benji42site/images/geomancer.svg"
       inkscape:export-xdpi="96"
       inkscape:export-ydpi="96" /></g></svg>
