<?xml version="1.0" encoding="UTF-8" standalone="no"?>
<!-- Created with Inkscape (http://www.inkscape.org/) -->

<svg
   width="18.643677mm"
   height="21.288095mm"
   viewBox="0 0 18.643677 21.288095"
   version="1.1"
   id="svg21"
   inkscape:version="1.2.1 (9c6d41e4, 2022-07-14)"
   sodipodi:docname="icons.svg"
   xml:space="preserve"
   inkscape:export-filename="Documents/GitHub/benji42site/images/pyromancer.png"
   inkscape:export-xdpi="96"
   inkscape:export-ydpi="96"
   xmlns:inkscape="http://www.inkscape.org/namespaces/inkscape"
   xmlns:sodipodi="http://sodipodi.sourceforge.net/DTD/sodipodi-0.dtd"
   xmlns="http://www.w3.org/2000/svg"
   xmlns:svg="http://www.w3.org/2000/svg"><sodipodi:namedview
     id="namedview23"
     pagecolor="#505050"
     bordercolor="#eeeeee"
     borderopacity="1"
     inkscape:showpageshadow="0"
     inkscape:pageopacity="0"
     inkscape:pagecheckerboard="0"
     inkscape:deskcolor="#505050"
     inkscape:document-units="mm"
     showgrid="false"
     inkscape:zoom="1.217621"
     inkscape:cx="287.03514"
     inkscape:cy="194.64185"
     inkscape:window-width="1440"
     inkscape:window-height="872"
     inkscape:window-x="0"
     inkscape:window-y="0"
     inkscape:window-maximized="0"
     inkscape:current-layer="layer1" /><defs
     id="defs18" /><g
     inkscape:label="Layer 1"
     inkscape:groupmode="layer"
     id="layer1"
     transform="translate(-83.344172,-21.755353)"><path
       id="path2198"
       style="fill:none;stroke:#ffffd1;stroke-width:1.80001;stroke-linecap:round;stroke-linejoin:round;stroke-dasharray:none;stroke-opacity:1"
       d="m 95.84881,35.474345 c 0.49362,0.01125 0.992327,-0.02671 1.48439,0 0.439046,0.02384 0.845948,0.273331 1.222441,0.426625 0.894956,0.364393 1.886179,0.753807 2.532199,1.279879 M 91.96475,24.075011 c 0,-0.473218 0,-0.946436 0,-1.419653 m -3.735762,7.605281 c 0.06461,-0.808822 -0.193162,-1.76344 0.249049,-2.535093 0.211322,-0.368751 1.080831,-0.850048 1.618832,-0.912635 0.328731,-0.03824 0.666699,0.03354 0.996201,0 1.746712,-0.177797 3.733523,-0.420323 4.731965,1.115443 0.726741,1.117849 1.149924,2.094527 0.996201,3.346322 -0.07176,0.58442 -0.437674,1.070223 -0.622626,1.622463 -0.06643,0.19836 -0.04468,0.413367 -0.124526,0.608423 -0.419468,0.683167 -0.352942,0.503117 -0.622625,1.216846 -0.448058,1.185801 -0.731711,2.43004 -0.996204,3.650533 -0.03952,0.182324 -0.329118,2.136682 -0.249051,2.332288 0.284751,0.695634 2.280487,1.334896 3.113135,1.419651 0.356744,0.03631 0.75845,0 1.12073,0 M 84.244176,38.06873 c 0,-1.284447 0,-2.568897 0,-3.853342 0,-0.948004 0.563539,-3.722036 1.992408,-3.954749 0.362717,-0.05907 1.023263,-0.02171 1.369776,0 0.782069,0.049 1.312248,0.15596 1.867881,0.608424 0.581844,0.473807 0.686503,1.222106 0.871676,1.825267 0.06367,0.207395 0.197569,0.398796 0.249053,0.608424 0.129579,0.527605 0.03026,2.048934 -0.124525,2.535093 -0.422633,1.327469 -0.633947,1.450381 -0.996204,2.433691 -0.157316,0.427026 -0.967244,2.839305 -1.494303,2.839305" /></g></svg>
