<?xml version="1.0" encoding="UTF-8" standalone="no"?>
<!-- Created with Inkscape (http://www.inkscape.org/) -->

<svg
   width="21.251451mm"
   height="19.921839mm"
   viewBox="0 0 21.251451 19.921839"
   version="1.1"
   id="svg21"
   inkscape:version="1.2.1 (9c6d41e4, 2022-07-14)"
   sodipodi:docname="icons.svg"
   xml:space="preserve"
   inkscape:export-filename="Documents/GitHub/benji42site/images/pyromancer.png"
   inkscape:export-xdpi="96"
   inkscape:export-ydpi="96"
   xmlns:inkscape="http://www.inkscape.org/namespaces/inkscape"
   xmlns:sodipodi="http://sodipodi.sourceforge.net/DTD/sodipodi-0.dtd"
   xmlns="http://www.w3.org/2000/svg"
   xmlns:svg="http://www.w3.org/2000/svg"><sodipodi:namedview
     id="namedview23"
     pagecolor="#505050"
     bordercolor="#eeeeee"
     borderopacity="1"
     inkscape:showpageshadow="0"
     inkscape:pageopacity="0"
     inkscape:pagecheckerboard="0"
     inkscape:deskcolor="#505050"
     inkscape:document-units="mm"
     showgrid="false"
     inkscape:zoom="1.217621"
     inkscape:cx="287.03514"
     inkscape:cy="194.64185"
     inkscape:window-width="1440"
     inkscape:window-height="872"
     inkscape:window-x="0"
     inkscape:window-y="0"
     inkscape:window-maximized="0"
     inkscape:current-layer="layer1" /><defs
     id="defs18" /><g
     inkscape:label="Layer 1"
     inkscape:groupmode="layer"
     id="layer1"
     transform="translate(-14.887805,-22.438482)"><path
       id="path315"
       style="fill:none;stroke:#ffffd1;stroke-width:1.8;stroke-linecap:round;stroke-linejoin:round;stroke-dasharray:none;stroke-opacity:1"
       d="m 25.708598,23.325844 v 2.126615 z m -8.486669,2.807579 0.181804,0.09919 c -0.05975,-0.03482 -0.120184,-0.06837 -0.181804,-0.09919 z m 0.181804,0.09919 c 0.705036,0.410857 1.296258,1.066442 2.157122,1.176889 z m 16.242923,0.283158 -0.06877,0.056 c 0.0042,0.01466 -0.02919,0.04199 0.06877,-0.056 z m -0.06877,0.056 c -0.0037,-0.01293 -0.03671,-0.01596 -0.214859,0.08585 -0.231561,0.132345 -1.251885,0.96844 -1.417643,1.134229 -0.08353,0.08355 -0.141849,0.18918 -0.212727,0.283691 z m -7.756254,1.405655 c -0.173168,0.0019 -0.34732,0.01707 -0.520353,0.01707 -1.122888,-0.0099 -1.669673,0.230857 -2.232295,0.464463 -1.361832,0.696413 -1.851546,1.470556 -2.024368,2.967022 -0.07497,0.649091 -0.267138,1.97555 0.188735,3.380826 0.392195,0.842468 1.557586,1.973451 3.445209,2.395907 1.732021,0.206525 3.60266,-0.883781 4.619737,-2.2178 0.206082,-0.270299 0.417489,-0.552999 0.519287,-0.876668 0.33614,-1.06882 0.272817,-1.693901 0.207396,-2.73399 -0.04488,-0.713561 -0.03694,-0.733396 -0.415324,-1.522971 -0.04991,-0.104133 -0.07967,-0.222133 -0.155679,-0.309288 -0.511506,-0.586452 -1.172469,-0.794787 -1.868688,-1.083038 -0.603228,-0.249749 -0.650597,-0.35051 -1.453364,-0.464463 -0.102779,-0.01459 -0.206391,-0.0182 -0.310293,-0.01707 z m -10.038669,4.46866 0.13862,0.0043 c -0.0388,-0.0035 -0.08264,-0.0043 -0.13862,-0.0043 z m 0.13862,0.0043 c 0.07356,0.0066 0.129292,0.02333 0.215925,0.06666 0.160214,0.08013 0.76921,0.0111 1.267295,-0.02026 z m 1.48322,0.0464 0.646178,0.02026 c -0.104095,-0.04401 -0.356463,-0.0385 -0.646178,-0.02026 z m 16.451917,0.410605 c -0.231327,0.0041 -0.45855,0.04066 -0.669635,0.118383 l 2.052624,0.181306 c -0.41652,-0.181132 -0.909322,-0.307938 -1.382993,-0.29974 z m -2.761712,4.737955 c 0.0843,0.209515 0.298522,0.429417 0.503292,0.637773 z m 0.503292,0.637773 0.43665,0.552983 c -0.0062,-0.02355 -0.01247,-0.04413 -0.01867,-0.05653 -0.07371,-0.147429 -0.242346,-0.31774 -0.417989,-0.496458 z m 0.43665,0.552983 c 0.01525,0.05813 0.03112,0.135103 0.05224,0.156242 0.0167,0.01671 0.04727,0 0.07091,0 z m -12.6463,-1.07939 c -0.760146,0.0038 -1.292162,0.512486 -1.923069,0.813212 0.03237,-0.0057 0.05514,0.0065 0.0064,0.07946 z m -1.923069,0.813212 c -0.04729,0.0083 -0.114737,0.05448 -0.0096,0.0049 0.0033,-0.0016 0.0063,-0.0032 0.0096,-0.0049 z m 7.747191,1.272876 v 1.630155 z" /></g></svg>
