<?xml version="1.0" encoding="UTF-8" standalone="no"?>
<!-- Created with Inkscape (http://www.inkscape.org/) -->

<svg
   width="20.237663mm"
   height="20.881062mm"
   viewBox="0 0 20.237663 20.881062"
   version="1.1"
   id="svg21"
   inkscape:version="1.2.1 (9c6d41e4, 2022-07-14)"
   sodipodi:docname="icons.svg"
   xml:space="preserve"
   inkscape:export-filename="Documents/GitHub/benji42site/images/sorcercer.svg"
   inkscape:export-xdpi="96"
   inkscape:export-ydpi="96"
   xmlns:inkscape="http://www.inkscape.org/namespaces/inkscape"
   xmlns:sodipodi="http://sodipodi.sourceforge.net/DTD/sodipodi-0.dtd"
   xmlns="http://www.w3.org/2000/svg"
   xmlns:svg="http://www.w3.org/2000/svg"><sodipodi:namedview
     id="namedview23"
     pagecolor="#505050"
     bordercolor="#eeeeee"
     borderopacity="1"
     inkscape:showpageshadow="0"
     inkscape:pageopacity="0"
     inkscape:pagecheckerboard="0"
     inkscape:deskcolor="#505050"
     inkscape:document-units="mm"
     showgrid="false"
     inkscape:zoom="1.217621"
     inkscape:cx="287.03514"
     inkscape:cy="194.64185"
     inkscape:window-width="1440"
     inkscape:window-height="872"
     inkscape:window-x="0"
     inkscape:window-y="0"
     inkscape:window-maximized="0"
     inkscape:current-layer="layer1" /><defs
     id="defs18" /><g
     inkscape:label="Layer 1"
     inkscape:groupmode="layer"
     id="layer1"
     transform="translate(-81.843821,-44.266429)"><path
       id="path6820"
       style="fill:none;stroke:#ffffd1;stroke-width:1.8;stroke-linecap:round;stroke-linejoin:round;stroke-dasharray:none;stroke-opacity:1"
       d="m 84.882058,45.622332 c -0.134791,0.334424 -1.797201,-0.49199 -1.973764,-0.446793 m 1.480322,4.994184 c -0.548266,0 -1.096536,0 -1.644801,0 m 3.723213,8.96488 c -0.405911,1.003618 -0.339722,2.734107 0,4.855336 3.174748,0.639226 5.095863,-0.01363 7.104807,-0.582303 2.008946,-0.568663 4.105719,-1.053124 5.075625,-2.632526 0.969907,-1.579401 2.47445,-4.132772 2.53209,-6.525761 0.0577,-2.392988 -1.331653,-4.625594 -2.05953,-7.635018 m -11.19231,0.954862 c 0.480024,-0.654279 1.21077,-1.292157 1.992775,-1.380167 0.372849,-0.04196 0.749419,0 1.124128,0 0.642776,0 1.295069,-0.04757 1.890582,0.287534 1.303861,0.733716 2.166066,1.895478 2.70813,3.39291 0.12065,0.333292 0.363963,1.337721 0.306581,1.725205 -0.106019,0.715933 -1.11675,1.962799 -1.584002,2.415291 -0.532319,0.515504 -1.067156,1.030315 -1.635096,1.495179 -0.350919,0.28723 -0.918767,0.472592 -1.328517,0.57507 -1.267503,0.317002 -2.21306,0.13954 -3.32129,-0.632575 -0.961042,-0.669566 -0.846607,-1.355999 -1.073033,-2.530305 -0.28236,-1.464385 0.383382,-4.08823 0.895519,-5.240998"
       inkscape:export-filename="Documents/GitHub/benji42site/images/sorcerer.svg"
       inkscape:export-xdpi="96"
       inkscape:export-ydpi="96" /></g></svg>
