<?xml version="1.0" encoding="UTF-8" standalone="no"?>
<!-- Created with Inkscape (http://www.inkscape.org/) -->

<svg
   width="20.781197mm"
   height="21.012779mm"
   viewBox="0 0 20.781197 21.012779"
   version="1.1"
   id="svg21"
   inkscape:version="1.2.1 (9c6d41e4, 2022-07-14)"
   sodipodi:docname="icons.svg"
   xml:space="preserve"
   inkscape:export-filename="Documents/GitHub/benji42site/images/sorcercer.png"
   inkscape:export-xdpi="96"
   inkscape:export-ydpi="96"
   xmlns:inkscape="http://www.inkscape.org/namespaces/inkscape"
   xmlns:sodipodi="http://sodipodi.sourceforge.net/DTD/sodipodi-0.dtd"
   xmlns="http://www.w3.org/2000/svg"
   xmlns:svg="http://www.w3.org/2000/svg"><sodipodi:namedview
     id="namedview23"
     pagecolor="#505050"
     bordercolor="#eeeeee"
     borderopacity="1"
     inkscape:showpageshadow="0"
     inkscape:pageopacity="0"
     inkscape:pagecheckerboard="0"
     inkscape:deskcolor="#505050"
     inkscape:document-units="mm"
     showgrid="false"
     inkscape:zoom="1.8373627"
     inkscape:cx="221.78528"
     inkscape:cy="247.0933"
     inkscape:window-width="1440"
     inkscape:window-height="872"
     inkscape:window-x="1"
     inkscape:window-y="0"
     inkscape:window-maximized="0"
     inkscape:current-layer="g2044" /><defs
     id="defs18" /><g
     inkscape:label="Layer 1"
     inkscape:groupmode="layer"
     id="layer1"
     transform="translate(-81.46557,-38.876471)"><g
       id="g2044"
       transform="matrix(1.1783948,0,0,1.1209876,-17.057634,-5.6867204)"
       style="stroke-width:0.87007"><path
         id="path1156"
         style="fill:none;stroke:#ffffd1;stroke-width:1.56613;stroke-linecap:round;stroke-linejoin:round;stroke-dasharray:none;stroke-opacity:1"
         d="m 88.977256,44.473315 c 0.212566,3.604846 -6.70227,6.327855 -1.375274,8.119525 5.394213,1.874292 5.871227,-6.284536 10.002005,-5.659061 2.272644,0.372709 3.102903,3.428966 2.375473,5.289993 -0.562464,1.459555 -2.259251,1.203479 -3.606165,0.747464 -1.745549,-0.572531 -1.491113,-2.212498 -1.394836,-3.823042 m -7.501502,-8.611618 c -0.848637,0.593937 -1.553894,1.370843 -2.125426,2.214417 -0.301967,0.445697 -0.537837,0.865786 -0.75015,1.353255 -0.636081,3.087625 0.132427,2.73402 2.875576,3.936737 2.581065,1.213482 5.884446,3.340755 5.251051,6.643249 -0.08103,0.372077 -0.399154,1.740094 -0.875173,2.091392 -2.003435,0.708093 -4.379144,1.119601 -6.626329,0.861164 -0.226376,-0.02784 -0.590725,-0.212198 -0.750151,-0.369071 m 9.231868,-11.835354 c -0.227676,0.296615 -1.683422,-0.97266 -1.874352,-0.975129 m 8.079888,0.558939 c 0.182111,-0.536055 0.364221,-1.072115 0.546331,-1.608169"
         inkscape:export-filename="Documents/GitHub/benji42site/images/path1156.svg"
         inkscape:export-xdpi="96"
         inkscape:export-ydpi="96" /></g></g></svg>
