<?xml version="1.0" encoding="UTF-8" standalone="no"?>
<!-- Created with Inkscape (http://www.inkscape.org/) -->

<svg
   width="21.027443mm"
   height="20.762184mm"
   viewBox="0 0 21.027443 20.762184"
   version="1.1"
   id="svg21"
   inkscape:version="1.2.1 (9c6d41e4, 2022-07-14)"
   sodipodi:docname="icons.svg"
   xml:space="preserve"
   inkscape:export-filename="Documents/GitHub/benji42site/images/sorcercer.svg"
   inkscape:export-xdpi="96"
   inkscape:export-ydpi="96"
   xmlns:inkscape="http://www.inkscape.org/namespaces/inkscape"
   xmlns:sodipodi="http://sodipodi.sourceforge.net/DTD/sodipodi-0.dtd"
   xmlns="http://www.w3.org/2000/svg"
   xmlns:svg="http://www.w3.org/2000/svg"><sodipodi:namedview
     id="namedview23"
     pagecolor="#505050"
     bordercolor="#eeeeee"
     borderopacity="1"
     inkscape:showpageshadow="0"
     inkscape:pageopacity="0"
     inkscape:pagecheckerboard="0"
     inkscape:deskcolor="#505050"
     inkscape:document-units="mm"
     showgrid="false"
     inkscape:zoom="1.890701"
     inkscape:cx="54.212698"
     inkscape:cy="308.88015"
     inkscape:window-width="1440"
     inkscape:window-height="872"
     inkscape:window-x="0"
     inkscape:window-y="0"
     inkscape:window-maximized="0"
     inkscape:current-layer="layer1" /><defs
     id="defs18" /><g
     inkscape:label="Layer 1"
     inkscape:groupmode="layer"
     id="layer1"
     transform="translate(-59.441629,-66.514822)"><path
       style="fill:none;stroke:#ffffd1;stroke-width:1.8;stroke-linecap:round;stroke-linejoin:round;stroke-dasharray:none;stroke-opacity:1"
       d="m 65.979513,67.41482 c 1.855187,0.196878 3.714118,0.373831 5.536927,0.734731 0.214826,0.04253 0.442226,0.01365 0.652847,0.07364 0.528559,0.150542 1.693485,0.6539 2.156296,0.954461 1.262308,0.819768 1.97153,1.863124 2.903629,3.032231 0.511715,0.64183 0.879695,1.438934 1.302396,2.130364 0.107696,0.176159 0.281554,0.306298 0.386139,0.484323 0.27162,0.462326 0.488985,1.189286 0.577561,1.718025 0.176248,1.052089 -0.01883,2.120752 -0.138302,3.179973 -0.03037,0.269276 -0.01536,0.611654 -0.09818,0.870463 -0.226099,0.706529 -0.63288,1.221472 -0.982568,1.87263 -0.0712,0.132581 -0.08175,0.293155 -0.1579,0.422958 -0.19403,0.330746 -0.419861,0.518255 -0.642223,0.809098 -0.737553,0.964705 -1.586784,1.94686 -2.797129,2.329109 -2.018953,0.637618 -6.292393,0.330319 -8.330761,-0.388708 -0.321581,-0.113439 -0.837931,-0.40383 -1.147794,-0.570234 -2.214822,-1.189414 -2.840929,-2.038547 -3.801675,-4.395729 -0.148376,-0.364033 -0.177217,-0.768074 -0.312501,-1.13717 -0.360248,-0.982852 -0.731514,-2.095799 -0.744435,-3.169349 -0.0047,-0.389588 0.09121,-0.808633 0.135003,-1.196887 0.06785,-0.601554 0.06704,-1.262671 0.208641,-1.849733 0.215202,-0.892232 0.646685,-1.721449 1.056207,-2.525474 0.805248,-1.58097 -0.370927,0.518795 0.303526,-0.737109 0.594787,-0.686706 1.105507,-1.891052 1.902121,-2.209677 0.07102,-0.02603 0.402624,-0.02393 0.447504,-0.05972 0.02853,-0.02276 -0.01626,-0.08605 0.01227,-0.108808 0.161187,-0.12851 1.289069,-0.225599 1.572402,-0.263409 z"
       id="path8573"
       sodipodi:nodetypes="csssssssssssssssssssssccscc" /></g></svg>
