<?xml version="1.0" encoding="UTF-8" standalone="no"?>
<!-- Created with Inkscape (http://www.inkscape.org/) -->

<svg
   width="20.756672mm"
   height="19.543163mm"
   viewBox="0 0 20.756672 19.543163"
   version="1.1"
   id="svg21"
   inkscape:version="1.2.1 (9c6d41e4, 2022-07-14)"
   sodipodi:docname="icons.svg"
   xml:space="preserve"
   inkscape:export-filename="Documents/GitHub/benji42site/images/pyromancer.png"
   inkscape:export-xdpi="96"
   inkscape:export-ydpi="96"
   xmlns:inkscape="http://www.inkscape.org/namespaces/inkscape"
   xmlns:sodipodi="http://sodipodi.sourceforge.net/DTD/sodipodi-0.dtd"
   xmlns="http://www.w3.org/2000/svg"
   xmlns:svg="http://www.w3.org/2000/svg"><sodipodi:namedview
     id="namedview23"
     pagecolor="#505050"
     bordercolor="#eeeeee"
     borderopacity="1"
     inkscape:showpageshadow="0"
     inkscape:pageopacity="0"
     inkscape:pagecheckerboard="0"
     inkscape:deskcolor="#505050"
     inkscape:document-units="mm"
     showgrid="false"
     inkscape:zoom="1.217621"
     inkscape:cx="287.03514"
     inkscape:cy="194.64185"
     inkscape:window-width="1440"
     inkscape:window-height="872"
     inkscape:window-x="0"
     inkscape:window-y="0"
     inkscape:window-maximized="0"
     inkscape:current-layer="layer1" /><defs
     id="defs18" /><g
     inkscape:label="Layer 1"
     inkscape:groupmode="layer"
     id="layer1"
     transform="translate(-59.296995,-22.627818)"><path
       id="path2186"
       style="fill:none;stroke:#ffffd1;stroke-width:1.8;stroke-linecap:round;stroke-linejoin:round;stroke-dasharray:none;stroke-opacity:1"
       d="m 72.204966,37.776884 c -0.03097,0.969929 -0.176178,1.790538 0.545819,2.513251 0.139881,0.14002 1.117364,0.498162 1.309959,0.546357 0.510702,0.127802 1.338917,0.276032 1.855779,0.218545 1.240562,-0.137978 2.617932,-1.416552 3.165739,-2.513251 0.208892,-0.418204 -0.170782,-2.199521 -0.327491,-2.513248 -0.08136,-0.162893 -0.233885,-0.28092 -0.327491,-0.437087 -0.979053,-1.633376 0.382177,0.346177 -0.764144,-1.311262 -0.31995,-0.462607 -1.353153,-2.294706 -1.855779,-2.294706 M 60.196995,25.210639 c 0.65301,-0.558002 1.166833,-1.021083 1.964942,-1.420532 0.491222,-0.245855 1.107437,-0.218544 1.63745,-0.218544 0.2911,0 0.590897,-0.07067 0.873306,0 1.146067,0.286802 1.63745,1.446669 1.63745,2.513249 0,0.364241 0.08335,0.738161 0,1.092717 -0.746936,3.177635 -1.84207,6.217949 -2.510756,9.397367 -0.224129,1.065662 -0.546803,2.284844 -0.436654,3.387424 0.114668,1.147804 1.257613,1.069621 2.183267,1.201988 2.139773,0.305986 4.089614,0.05866 5.676498,-1.529805 0.298792,-0.299089 0.764248,-0.65605 0.873306,-1.092717 0.223351,-0.894289 -0.419989,-1.941867 -0.873306,-2.622518 -0.06648,-0.09982 -0.09318,-0.265182 -0.218329,-0.327817 -0.161235,-0.08069 -0.692059,-0.327815 -0.873306,-0.327815 -1.14542,0 -2.18327,1.174862 -2.18327,2.294706" /></g></svg>
