<?xml version="1.0" encoding="UTF-8" standalone="no"?>
<!-- Created with Inkscape (http://www.inkscape.org/) -->

<svg
   width="20.611635mm"
   height="18.560959mm"
   viewBox="0 0 20.611635 18.560959"
   version="1.1"
   id="svg21"
   inkscape:version="1.2.1 (9c6d41e4, 2022-07-14)"
   sodipodi:docname="icons.svg"
   xml:space="preserve"
   inkscape:export-filename="Documents/GitHub/benji42site/images/sorcercer.svg"
   inkscape:export-xdpi="96"
   inkscape:export-ydpi="96"
   xmlns:inkscape="http://www.inkscape.org/namespaces/inkscape"
   xmlns:sodipodi="http://sodipodi.sourceforge.net/DTD/sodipodi-0.dtd"
   xmlns="http://www.w3.org/2000/svg"
   xmlns:svg="http://www.w3.org/2000/svg"><sodipodi:namedview
     id="namedview23"
     pagecolor="#505050"
     bordercolor="#eeeeee"
     borderopacity="1"
     inkscape:showpageshadow="0"
     inkscape:pageopacity="0"
     inkscape:pagecheckerboard="0"
     inkscape:deskcolor="#505050"
     inkscape:document-units="mm"
     showgrid="false"
     inkscape:zoom="3.2671094"
     inkscape:cx="91.365168"
     inkscape:cy="317.40596"
     inkscape:window-width="1440"
     inkscape:window-height="872"
     inkscape:window-x="0"
     inkscape:window-y="0"
     inkscape:window-maximized="0"
     inkscape:current-layer="layer1" /><defs
     id="defs18" /><g
     inkscape:label="Layer 1"
     inkscape:groupmode="layer"
     id="layer1"
     transform="translate(-15.527243,-67.009703)"><path
       style="fill:none;stroke:#ffffd1;stroke-width:1.80001;stroke-linecap:round;stroke-linejoin:round;stroke-dasharray:none;stroke-opacity:1"
       d="m 21.421892,74.598779 c -1.001385,-0.01361 -2.002773,-0.02722 -3.004158,-0.04082"
       id="path8202"
       inkscape:export-filename="Documents/GitHub/benji42site/images/path8202.svg"
       inkscape:export-xdpi="96"
       inkscape:export-ydpi="96" /><path
       style="fill:none;stroke:#ffffd1;stroke-width:1.80001;stroke-linecap:round;stroke-linejoin:round;stroke-dasharray:none;stroke-opacity:1"
       d="m 22.87818,71.289659 c -0.762715,0.02214 -1.525141,0.05013 -2.288142,0.06644 -0.493898,0.01058 -3.14427,0.05129 -3.504849,-0.04762 -0.05577,-0.0153 -0.08249,-0.06615 -0.123742,-0.09922"
       id="path8200" /><path
       style="fill:none;stroke:#ffffd1;stroke-width:1.80001;stroke-linecap:round;stroke-linejoin:round;stroke-dasharray:none;stroke-opacity:1"
       d="m 22.227155,81.311948 c -1.388102,-0.01886 -2.776204,-0.03773 -4.164307,-0.05659"
       id="path8198" /><path
       style="fill:none;stroke:#ffffd1;stroke-width:1.80001;stroke-linecap:round;stroke-linejoin:round;stroke-dasharray:none;stroke-opacity:1"
       d="m 23.060589,84.67066 c -1.168283,-0.01587 -2.336568,-0.03175 -3.50485,-0.04762 -0.375518,-0.0051 -0.751038,-0.01025 -1.126556,-0.0153 -0.08345,-0.0012 -0.333796,-0.0045 -0.250346,-0.0035 0.155699,0.0022 0.311396,0.0042 0.467098,0.0064"
       id="path8196" /><path
       style="fill:none;stroke:#ffffd1;stroke-width:1.80001;stroke-linecap:round;stroke-linejoin:round;stroke-dasharray:none;stroke-opacity:1"
       d="m 16.427249,77.906658 c 2.6018,0.285224 5.218038,0.176591 7.826121,0.176591 0.344436,0 0.795058,-0.218754 1.114134,0 0.347876,0.2385 0.138591,0.417671 0.607708,-0.176591"
       id="path8194" /><path
       style="fill:none;stroke:#ffffd1;stroke-width:1.80001;stroke-linecap:round;stroke-linejoin:round;stroke-dasharray:none;stroke-opacity:1"
       d="m 29.70537,76.096465 c 0,-1.046883 0,-2.09376 0,-3.140643 0,-0.265411 -0.05251,-3.035121 0,-3.124785 0.0643,-0.109795 0.17124,-0.11516 0.243981,-0.208316 1.128465,-1.445287 1.372022,-1.666551 2.805769,-1.666551 0.162654,0 0.34248,-0.124202 0.48796,0 0.388038,0.331321 0.707778,1.132334 0.975922,1.666551 0.280263,0.558366 0.865912,1.331763 0.97592,2.083187 0.08876,0.6063 0,1.249914 0,1.874872 0,2.044597 -0.146306,3.832308 -0.365971,5.832925 -0.05299,0.482603 -0.03743,0.988934 -0.121989,1.458231 -0.326497,1.812031 -1.397158,3.185326 -2.439802,3.541423 -1.000538,0.341718 -2.036161,0.20832 -3.04975,0.20832 -0.08133,0 -0.166825,0.04391 -0.243979,0 -0.05456,-0.03104 -0.06601,-0.230799 -0.121992,-0.20832 -0.04889,0.01965 0,0.171537 0,0.257301"
       id="path7862" /></g></svg>
